Coordinates
version=1
nRows=20
nColumns=38
inDegrees=no

Units are S.I. units (second, meters, Newtons, ...)
If the header above contains a line with 'inDegrees', this indicates whether rotational values are in degrees (yes) or radians (no).

endheader
time	pelvis_tilt	pelvis_list	pelvis_rotation	pelvis_tx	pelvis_ty	pelvis_tz	hip_flexion_r	hip_adduction_r	hip_rotation_r	knee_angle_r	ankle_angle_r	subtalar_angle_r	mtp_angle_r	hip_flexion_l	hip_adduction_l	hip_rotation_l	knee_angle_l	ankle_angle_l	subtalar_angle_l	mtp_angle_l	lumbar_extension	lumbar_bending	lumbar_rotation	arm_flex_r	arm_add_r	arm_rot_r	elbow_flex_r	pro_sup_r	wrist_flex_r	wrist_dev_r	arm_flex_l	arm_add_l	arm_rot_l	elbow_flex_l	pro_sup_l	wrist_flex_l	wrist_dev_l
0	2.75959	1.32514	-1.01911	0.651032	-0.801023	0.95217	-0.0235969	0.100631	-0.167493	0.261733	-0.3193	0	0	-0.382972	-0.252783	-0.186056	0.774701	-0.389915	0	0	-0.304702	0.16907	-0.236049	0.0921598	-0.326665	0.552708	0.729536	1.40234	0	0	-0.0716143	-0.292777	0.306577	0.849212	1.5708	0	0
0.01	2.75216	1.32221	-1.01534	0.652685	-0.791224	0.953136	-0.0430847	0.108711	-0.166628	0.245945	-0.320087	0	0	-0.360563	-0.26071	-0.177859	0.828633	-0.401604	0	0	-0.30561	0.17111	-0.238334	0.0984137	-0.330765	0.569867	0.734571	1.39654	0	0	-0.0886352	-0.294694	0.301721	0.84864	1.5708	0	0
0.02	2.74427	1.32069	-1.01035	0.65421	-0.781719	0.95392	-0.059105	0.115279	-0.167532	0.234444	-0.320344	0	0	-0.335274	-0.266134	-0.163813	0.883422	-0.408871	0	0	-0.305298	0.172867	-0.240228	0.104862	-0.334867	0.585758	0.73982	1.39104	0	0	-0.103125	-0.297929	0.301974	0.847321	1.5708	0	0
0.03	2.73821	1.31982	-1.00677	0.655542	-0.772635	0.954691	-0.0733299	0.120358	-0.167467	0.225519	-0.319968	0	0	-0.30788	-0.270087	-0.148863	0.939845	-0.411085	0	0	-0.305334	0.174558	-0.241195	0.111982	-0.339007	0.599932	0.745143	1.38549	0	0	-0.11442	-0.30038	0.30347	0.844926	1.5708	0	0
0.04	2.73866	1.31743	-1.00964	0.656834	-0.763819	0.955549	-0.0894915	0.124618	-0.16588	0.217349	-0.319005	0	0	-0.282361	-0.273388	-0.136276	0.995571	-0.410665	0	0	-0.310869	0.172408	-0.238641	0.118767	-0.340528	0.608493	0.748395	1.38074	0	0	-0.127402	-0.31101	0.30072	0.85284	1.5708	0	0
0.05	2.73421	1.31933	-1.00625	0.657969	-0.754863	0.956356	-0.101478	0.127693	-0.164574	0.208316	-0.318021	0	0	-0.250608	-0.275032	-0.122411	1.05161	-0.408535	0	0	-0.287665	0.169882	-0.197381	0.091431	-0.356485	0.59266	0.756001	1.34916	0	0	-0.0864052	-0.309212	0.389311	0.801223	1.5708	0	0
0.06	2.73777	1.32009	-1.0106	0.659142	-0.745934	0.957252	-0.115475	0.129734	-0.162143	0.201134	-0.315104	0	0	-0.221145	-0.275441	-0.11162	1.10415	-0.407045	0	0	-0.284886	0.168279	-0.188533	0.0893691	-0.359098	0.587858	0.759814	1.34549	0	0	-0.0850529	-0.312596	0.409507	0.791119	1.5708	0	0
0.07	2.74269	1.32172	-1.01664	0.660296	-0.737065	0.958152	-0.128686	0.131018	-0.15859	0.194701	-0.311406	0	0	-0.191436	-0.274181	-0.102138	1.15296	-0.400193	0	0	-0.281587	0.165643	-0.178447	0.087417	-0.360533	0.581237	0.761071	1.3434	0	0	-0.0830959	-0.314781	0.425143	0.781888	1.5708	0	0
0.08	2.7521	1.32326	-1.02726	0.661476	-0.728351	0.959067	-0.142385	0.131566	-0.154353	0.188391	-0.306996	0	0	-0.163012	-0.270924	-0.0932926	1.19667	-0.382923	0	0	-0.278656	0.160895	-0.166706	0.0854141	-0.360624	0.573333	0.759756	1.34326	0	0	-0.0810938	-0.319323	0.443325	0.774832	1.5708	0	0
0.09	2.83092	1.29547	-1.10209	0.663242	-0.720789	0.96121	-0.195647	0.132739	-0.162345	0.174028	-0.30443	0	0	-0.172948	-0.269606	-0.0893614	1.23172	-0.354679	0	0	-0.452947	0.131683	0.143788	-0.241503	-0.288964	-0.0652572	1.04159	1.5708	0	0	0.145725	-0.348845	0.745556	0.838875	1.5708	0	0
0.1	2.79132	1.31833	-1.06968	0.664267	-0.709841	0.96044	-0.183622	0.133266	-0.154048	0.169939	-0.297714	0	0	-0.123009	-0.267173	-0.0893242	1.26787	-0.326367	0	0	-0.426313	0.122632	0.191497	-0.270928	-0.274086	-0.116548	1.04288	1.5708	0	0	0.171231	-0.335803	0.793573	0.811669	1.5613	0	0
0.11	2.88404	1.27818	-1.16192	0.665885	-0.705031	0.963683	-0.244832	0.131428	-0.152823	0.162815	-0.295332	0	0	-0.14502	-0.260427	-0.0854658	1.29374	-0.310955	0	0	-0.472785	0.112581	0.19087	-0.258145	-0.283071	-0.105856	1.05518	1.5708	0	0	0.176519	-0.355059	0.801485	0.839013	1.52911	0	0
0.12	2.89472	1.28249	-1.17594	0.667061	-0.695398	0.964176	-0.257068	0.129446	-0.155032	0.153302	-0.295725	0	0	-0.118476	-0.254971	-0.0861946	1.31603	-0.297661	0	0	-0.475697	0.0950614	0.217998	-0.267746	-0.279588	-0.122423	1.05619	1.5708	0	0	0.184217	-0.363067	0.817126	0.854538	1.51404	0	0
0.13	2.84103	1.31165	-1.13244	0.666922	-0.68802	0.963384	-0.225457	0.128244	-0.131077	0.165285	-0.285536	0	0	-0.0526231	-0.246298	-0.0754343	1.34479	-0.280954	0	0	-0.330654	0.138326	-0.179821	0.139087	-0.320655	0.52113	0.744671	1.51834	0	0	-0.169464	-0.326976	0.304916	0.853826	1.5708	0	0
0.14	2.8724	1.30595	-1.16637	0.668057	-0.679871	0.964141	-0.246918	0.125017	-0.134589	0.158649	-0.283777	0	0	-0.0370948	-0.240441	-0.0777516	1.35719	-0.274281	0	0	-0.33949	0.130038	-0.181176	0.156174	-0.320861	0.54489	0.739232	1.50752	0	0	-0.185331	-0.329604	0.284811	0.867463	1.5708	0	0
0.15	2.90925	1.29467	-1.20605	0.669224	-0.671979	0.965135	-0.274296	0.121806	-0.139179	0.151609	-0.283325	0	0	-0.029115	-0.235612	-0.0834187	1.36337	-0.266023	0	0	-0.355992	0.121811	-0.200835	0.201624	-0.323218	0.632168	0.723736	1.44836	0	0	-0.220825	-0.324156	0.224629	0.894352	1.5708	0	0
0.16	2.93391	1.28997	-1.23511	0.670406	-0.663853	0.965756	-0.292315	0.118075	-0.140507	0.148429	-0.280972	0	0	-0.0137919	-0.230928	-0.091195	1.36525	-0.259801	0	0	-0.363391	0.114002	-0.196214	0.212747	-0.323261	0.642917	0.722781	1.44034	0	0	-0.229924	-0.326061	0.212352	0.903815	1.5708	0	0
0.17	2.95971	1.28381	-1.26553	0.671535	-0.655743	0.966416	-0.312005	0.113916	-0.142097	0.145014	-0.278199	0	0	-0.00159313	-0.226843	-0.102344	1.36162	-0.252093	0	0	-0.373075	0.105929	-0.193269	0.224986	-0.322136	0.653052	0.721958	1.434	0	0	-0.240778	-0.326564	0.194965	0.915308	1.5708	0	0
0.18	2.98646	1.27662	-1.29653	0.672535	-0.647615	0.967029	-0.332991	0.109263	-0.144266	0.14124	-0.275392	0	0	0.00831075	-0.22307	-0.116318	1.35328	-0.24509	0	0	-0.383738	0.0974886	-0.191521	0.237243	-0.320326	0.662113	0.721364	1.42833	0	0	-0.252245	-0.326401	0.176449	0.927228	1.5708	0	0
0.19	3.01238	1.2684	-1.32654	0.673416	-0.639448	0.967565	-0.355063	0.104502	-0.146273	0.13759	-0.272211	0	0	0.0161829	-0.220084	-0.133345	1.34046	-0.239566	0	0	-0.395248	0.0891105	-0.190148	0.248891	-0.318295	0.669525	0.721739	1.42218	0	0	-0.263372	-0.325956	0.158649	0.938986	1.5708	0	0
